<svg version="1.1" xmlns="http://www.w3.org/2000/svg" viewBox="0 0 70.81850571529708 56.463901618742966" width="70.81850571529708" height="56.463901618742966"><!-- svg-source:excalidraw --><metadata></metadata><defs><style class="style-fonts">
      </style></defs><rect x="0" y="0" width="70.81850571529708" height="56.463901618742966" fill="#121212"></rect><g stroke-linecap="round" transform="translate(10 10) rotate(0 25.40925285764854 18.231950809371483)"><path d="M9.12 0 C19.5 0, 29.88 0, 41.7 0 M9.12 0 C16.92 0, 24.73 0, 41.7 0 M41.7 0 C47.78 0, 50.82 3.04, 50.82 9.12 M41.7 0 C47.78 0, 50.82 3.04, 50.82 9.12 M50.82 9.12 C50.82 14.02, 50.82 18.92, 50.82 27.35 M50.82 9.12 C50.82 12.77, 50.82 16.43, 50.82 27.35 M50.82 27.35 C50.82 33.43, 47.78 36.46, 41.7 36.46 M50.82 27.35 C50.82 33.43, 47.78 36.46, 41.7 36.46 M41.7 36.46 C29.34 36.46, 16.97 36.46, 9.12 36.46 M41.7 36.46 C33.69 36.46, 25.67 36.46, 9.12 36.46 M9.12 36.46 C3.04 36.46, 0 33.43, 0 27.35 M9.12 36.46 C3.04 36.46, 0 33.43, 0 27.35 M0 27.35 C0 21.26, 0 15.17, 0 9.12 M0 27.35 C0 20.75, 0 14.15, 0 9.12 M0 9.12 C0 3.04, 3.04 0, 9.12 0 M0 9.12 C0 3.04, 3.04 0, 9.12 0" stroke="#39994b" stroke-width="4" fill="none"></path></g><g stroke-linecap="round"><g transform="translate(10.669203073819972 23.310519861047396) rotate(0 24.952066337829592 -0.5848170626943556)"><path d="M0 0 C4.08 -0.19, 16.14 -1.17, 24.46 -1.17 C32.78 -1.17, 45.66 -0.19, 49.9 0 M0 0 C4.08 -0.19, 16.14 -1.17, 24.46 -1.17 C32.78 -1.17, 45.66 -0.19, 49.9 0" stroke="#39994b" stroke-width="4" fill="none"></path></g></g><mask></mask><g stroke-linecap="round"><g transform="translate(10.509517251681018 33.755623893504435) rotate(0 24.952066337829592 0.5357458708506329)"><path d="M0 0 C4.13 0.18, 16.44 1.07, 24.75 1.07 C33.07 1.07, 45.71 0.18, 49.9 0 M0 0 C4.13 0.18, 16.44 1.07, 24.75 1.07 C33.07 1.07, 45.71 0.18, 49.9 0" stroke="#39994b" stroke-width="4" fill="none"></path></g></g><mask></mask><g stroke-linecap="round"><g transform="translate(26.74668344900988 10.080293834858367) rotate(0 -0.9100447835000978 18.04127562485769)"><path d="M0 0 C-0.32 3.07, -1.94 12.43, -1.92 18.44 C-1.9 24.45, -0.24 33.14, 0.1 36.08 M0 0 C-0.32 3.07, -1.94 12.43, -1.92 18.44 C-1.9 24.45, -0.24 33.14, 0.1 36.08" stroke="#39994b" stroke-width="4" fill="none"></path></g></g><mask></mask><g stroke-linecap="round"><g transform="translate(45.012383747226295 10.07714865931166) rotate(0 0.9185683897540002 18.080315415299765)"><path d="M0 0 C0.33 3.13, 2.01 12.76, 1.99 18.79 C1.96 24.82, 0.21 33.27, -0.15 36.16 M0 0 C0.33 3.13, 2.01 12.76, 1.99 18.79 C1.96 24.82, 0.21 33.27, -0.15 36.16" stroke="#39994b" stroke-width="4" fill="none"></path></g></g><mask></mask></svg>
